<svg xmlns="http://www.w3.org/2000/svg" width="1600" height="220">
<defs>
<marker id="arrow" viewBox="0 0 10 10" refX="10" refY="5" markerWidth="8" markerHeight="8" orient="auto-start-reverse">
<path d="M 0 0 L 10 5 L 0 10 z" fill="#333"/>
</marker>
</defs>
<rect width="100%" height="100%" fill="#fafafa"/>
<line x1="180" y1="75" x2="220" y2="75" stroke="#666" stroke-width="2" marker-end="url(#arrow)"/>
<line x1="360" y1="75" x2="420" y2="75" stroke="#666" stroke-width="2" marker-end="url(#arrow)"/>
<line x1="360" y1="75" x2="1220" y2="75" stroke="#666" stroke-width="2" marker-end="url(#arrow)"/>
<line x1="560" y1="75" x2="620" y2="75" stroke="#666" stroke-width="2" marker-end="url(#arrow)"/>
<line x1="760" y1="75" x2="820" y2="75" stroke="#666" stroke-width="2" marker-end="url(#arrow)"/>
<line x1="760" y1="75" x2="1220" y2="75" stroke="#666" stroke-width="2" marker-end="url(#arrow)"/>
<line x1="960" y1="75" x2="1020" y2="75" stroke="#666" stroke-width="2" marker-end="url(#arrow)"/>
<line x1="960" y1="75" x2="420" y2="75" stroke="#666" stroke-width="2" marker-end="url(#arrow)"/>
<line x1="960" y1="75" x2="1220" y2="75" stroke="#666" stroke-width="2" marker-end="url(#arrow)"/>
<line x1="1160" y1="75" x2="1220" y2="75" stroke="#666" stroke-width="2" marker-end="url(#arrow)"/>
<line x1="1360" y1="75" x2="1420" y2="75" stroke="#666" stroke-width="2" marker-end="url(#arrow)"/>
<rect x="40" y="50" width="140" height="50" rx="8" fill="#d9f2e6" stroke="#444"/>
<text x="110" y="80" text-anchor="middle" font-family="Arial, sans-serif" font-size="12" fill="#111">START</text>
<rect x="220" y="50" width="140" height="50" rx="8" fill="#fff4cc" stroke="#444"/>
<text x="290" y="80" text-anchor="middle" font-family="Arial, sans-serif" font-size="12" fill="#111">query_understander</text>
<rect x="420" y="50" width="140" height="50" rx="8" fill="#fff4cc" stroke="#444"/>
<text x="490" y="80" text-anchor="middle" font-family="Arial, sans-serif" font-size="12" fill="#111">retrieval_router</text>
<rect x="620" y="50" width="140" height="50" rx="8" fill="#fff4cc" stroke="#444"/>
<text x="690" y="80" text-anchor="middle" font-family="Arial, sans-serif" font-size="12" fill="#111">searcher</text>
<rect x="820" y="50" width="140" height="50" rx="8" fill="#fff4cc" stroke="#444"/>
<text x="890" y="80" text-anchor="middle" font-family="Arial, sans-serif" font-size="12" fill="#111">evaluator</text>
<rect x="1020" y="50" width="140" height="50" rx="8" fill="#fff4cc" stroke="#444"/>
<text x="1090" y="80" text-anchor="middle" font-family="Arial, sans-serif" font-size="12" fill="#111">reranker</text>
<rect x="1220" y="50" width="140" height="50" rx="8" fill="#fff4cc" stroke="#444"/>
<text x="1290" y="80" text-anchor="middle" font-family="Arial, sans-serif" font-size="12" fill="#111">reporter</text>
<rect x="1420" y="50" width="140" height="50" rx="8" fill="#d9f2e6" stroke="#444"/>
<text x="1490" y="80" text-anchor="middle" font-family="Arial, sans-serif" font-size="12" fill="#111">END</text>
</svg>